<?xml version="1.0" encoding="utf-8"?>
<!-- Generator: Adobe Illustrator 24.0.1, SVG Export Plug-In . SVG Version: 6.00 Build 0)  -->
<svg version="1.1" id="Layer_1" xmlns="http://www.w3.org/2000/svg" xmlns:xlink="http://www.w3.org/1999/xlink" x="0px" y="0px"
	 viewBox="0 0 288 288" style="enable-background:new 0 0 288 288;" xml:space="preserve">
<style type="text/css">
	.st0{fill:url(#SVGID_1_);}
	.st1{fill:#FFFFFF;}
	.st2{fill:#001A4E;}
	.st3{enable-background:new    ;}
</style>
<radialGradient id="SVGID_1_" cx="145.77" cy="143.42" r="85.68" gradientTransform="matrix(1 0 0 -1 0 290)" gradientUnits="userSpaceOnUse">
	<stop  offset="0.6836" style="stop-color:#ACC2D4"/>
	<stop  offset="0.7246" style="stop-color:#BBCDDC"/>
	<stop  offset="0.8435" style="stop-color:#E0E8EF"/>
	<stop  offset="0.9395" style="stop-color:#F7F9FB"/>
	<stop  offset="1" style="stop-color:#FFFFFF"/>
</radialGradient>
<circle class="st0" cx="145.8" cy="146.6" r="85.7"/>
<circle class="st1" cx="145.8" cy="143.5" r="71.1"/>
<g>
	<g>
		<path class="st2" d="M146,233.8c-37.8,0-71.6-24-83.9-59.8l2.9-1c11.9,34.5,44.5,57.7,81,57.7c47.3,0,85.7-38.5,85.7-85.7v-1.5
			h26.2v3.1h-23.2C233.9,194.8,194.4,233.8,146,233.8z"/>
	</g>
	<g>
		<polygon class="st2" points="255.7,152.6 268.9,145 255.7,137.4 		"/>
	</g>
</g>
<g>
	<g>
		<path class="st2" d="M63,65.6c5.6,0,10.8,0.7,15.4,2.1c4.6,1.4,8.6,3.4,11.9,6.1c3.3,2.6,5.9,5.8,7.7,9.6s2.8,7.9,2.8,12.5
			c0,3.4-0.6,6.4-1.9,9c-1.3,2.6-2.8,5-4.7,7.1c-1.9,2.1-3.9,4-6.1,5.6c-2.2,1.6-4.2,3.1-6,4.5c-1.8,1.3-3.4,2.7-4.6,3.9
			c-1.2,1.2-1.8,2.4-1.8,3.6v6.5H50.1v-10.7c0-1.8,0.5-3.5,1.4-5.2c0.9-1.6,2.1-3.1,3.6-4.6c1.4-1.5,3-3,4.6-4.4
			c1.6-1.4,3.2-2.9,4.6-4.5c1.4-1.5,2.6-3.1,3.5-4.8c0.9-1.7,1.4-3.4,1.4-5.4c0-1.3-0.2-2.6-0.6-3.8s-1-2.3-1.8-3.2
			c-0.8-0.9-1.8-1.6-3-2.2c-1.2-0.6-2.5-0.8-4-0.8c-2,0-3.5,0.3-4.7,1c-1.2,0.7-2.1,1.6-2.8,2.7c-0.7,1.1-1.1,2.4-1.4,3.8
			c-0.2,1.5-0.4,3-0.4,4.5v2c0,0.6,0,1.3,0.1,1.9l0,0.3H23.1l0-0.2c-0.1-0.9-0.2-1.9-0.3-2.8c-0.1-0.9-0.1-1.8-0.1-2.8
			c0-4.8,1-9.2,3-13s4.9-7.2,8.4-9.9s7.9-4.8,12.8-6.2C51.8,66.3,57.2,65.6,63,65.6 M63,62.5c-6.1,0-11.8,0.8-17,2.3
			c-5.3,1.5-9.9,3.8-13.8,6.7c-3.9,3-7.1,6.6-9.3,10.9c-2.3,4.3-3.4,9.1-3.4,14.4c0,1.1,0,2.1,0.2,3.1c0.1,0.9,0.2,1.8,0.3,2.7
			l0.3,3h33.8l-0.5-3.8c-0.1-0.5-0.1-1-0.1-1.5v-2c0-1.3,0.1-2.7,0.3-4c0.2-1.1,0.5-2,1-2.8c0.4-0.7,1-1.2,1.7-1.6
			c0.7-0.4,1.8-0.6,3.2-0.6c1,0,1.9,0.2,2.7,0.5c0.8,0.4,1.5,0.9,2,1.5c0.5,0.6,0.9,1.3,1.2,2.1c0.3,0.9,0.5,1.8,0.5,2.8
			c0,1.4-0.3,2.7-1,3.9c-0.8,1.4-1.8,2.8-3.1,4.2c-1.3,1.5-2.8,2.9-4.3,4.2c-1.7,1.5-3.3,3-4.8,4.6c-1.6,1.7-3,3.4-4,5.2
			c-1.2,2.1-1.9,4.3-1.9,6.7V139h31.7v-9.6c0-0.4,0.3-0.9,0.9-1.4c1.1-1.1,2.6-2.3,4.3-3.6c1.9-1.4,3.9-2.9,6.1-4.5
			c2.3-1.7,4.5-3.8,6.5-6c2.1-2.3,3.8-4.9,5.2-7.8c1.4-3,2.2-6.5,2.2-10.3c0-5-1-9.7-3.1-13.8c-2-4.1-4.9-7.7-8.6-10.6
			c-3.6-2.8-8-5.1-12.9-6.6C74.4,63.3,68.9,62.5,63,62.5L63,62.5z"/>
	</g>
	<g>
		<path class="st2" d="M76.1,147.6v24.2H50.2v-24.2H76.1 M79.1,144.5h-32v30.3h32V144.5L79.1,144.5z"/>
	</g>
</g>
<g>
	<path class="st2" d="M117.7,139h-6.5c-1.9,0-2.9-1-2.9-3v-11.8c0-2.1,1-3.1,2.9-3.1h2.3c1.9,0,2.9,1,2.9,3.1v12.7h1.4L117.7,139
		L117.7,139z M113.9,136.8v-12.6c0-0.7-0.4-1.1-1.1-1.1h-1.1c-0.7,0-1.1,0.3-1.1,1.1v11.5c0,0.7,0.4,1.1,1.1,1.1H113.9z"/>
	<path class="st2" d="M127.1,121v14.5c0,2.3-1,3.4-2.9,3.4h-2c-1.9,0-2.9-1.1-2.9-3.4V121h2.4v14.6c0,0.8,0.3,1.2,1.1,1.2h1
		c0.7,0,1-0.4,1-1.2V121L127.1,121L127.1,121z"/>
	<path class="st2" d="M129.9,139V121h5.9v2.2h-3.6v5.5h3.1v2.2h-3.1v6h3.6v2.2L129.9,139L129.9,139z"/>
	<path class="st2" d="M142.7,125.8v-1.6c0-0.7-0.4-1.1-1.1-1.1h-0.4c-0.7,0-1,0.4-1,1.1v3c0,0.3,0.1,0.6,0.2,0.7
		c0.1,0.1,0.4,0.3,0.6,0.5l2.3,1.2c0.5,0.3,0.9,0.5,1.1,0.7c0.2,0.2,0.4,0.4,0.5,0.6c0.1,0.2,0.2,0.6,0.2,1.3v3.8c0,2-1,3-2.9,3
		h-1.5c-1.9,0-2.9-1.1-2.9-3.3v-0.9h2.4v1c0,0.7,0.4,1.1,1.1,1.1h0.4c0.6,0,0.9-0.4,0.9-1.1v-3.1c0-0.3-0.1-0.6-0.2-0.7
		c-0.1-0.1-0.4-0.3-0.6-0.4l-2.3-1.3c-0.5-0.3-0.9-0.5-1.1-0.7c-0.2-0.2-0.4-0.4-0.5-0.7c-0.1-0.3-0.1-0.7-0.1-1.1v-3.7
		c0-2.1,1-3.1,2.9-3.1h1.5c1.9,0,2.9,1,2.9,3.1v1.8L142.7,125.8L142.7,125.8z"/>
	<path class="st2" d="M151.4,123.2V139H149v-15.8h-2.3V121h7v2.2C153.7,123.2,151.4,123.2,151.4,123.2z"/>
	<path class="st2" d="M155.6,139V121h2.4V139H155.6z"/>
	<path class="st2" d="M163.5,139c-1.9,0-2.9-1-2.9-3.1v-11.8c0-2.1,1-3.1,2.9-3.1h2.3c1.9,0,2.9,1,2.9,3.1v11.8c0,2-1,3.1-2.9,3.1
		H163.5z M164.1,136.8h1.2c0.6,0,0.9-0.4,0.9-1.1v-11.5c0-0.7-0.4-1.1-1.1-1.1H164c-0.7,0-1.1,0.3-1.1,1.1v11.5
		C163,136.4,163.4,136.8,164.1,136.8z"/>
	<path class="st2" d="M176.2,129.7V121h2.4v18h-2.4v-3.6l-2.6-8.2v11.8h-2.4V121h2.4L176.2,129.7z"/>
	<path class="st2" d="M183.3,134.1v-3c0-0.4,0-0.6,0.1-0.9c0.1-0.2,0.1-0.4,0.2-0.5c0.1-0.1,0.3-0.3,0.5-0.4l1.7-1.3
		c0.2-0.2,0.3-0.3,0.4-0.5s0.1-0.4,0.1-0.7v-2.6c0-0.7-0.4-1.1-1.1-1.1h-0.9c-0.7,0-1,0.4-1,1.1v1.3h-2.4v-1.5c0-2.1,1-3.1,2.9-3.1
		h2.1c1.9,0,2.9,1,2.9,3.1v3.7c0,0.4,0,0.7-0.1,0.8s-0.1,0.4-0.3,0.5s-0.3,0.3-0.5,0.4l-1.7,1.3c-0.2,0.1-0.3,0.3-0.4,0.4
		s-0.1,0.4-0.1,0.7v2.1H183.3z M185.8,135.9v3.1h-2.6v-3.1H185.8z"/>
</g>
<g class="st3">
	<path class="st2" d="M109.8,163.2c-0.3-0.4-0.5-0.9-0.5-1.6v-4.4c0-0.7,0.2-1.2,0.5-1.6c0.3-0.4,0.8-0.6,1.5-0.6s1.1,0.2,1.5,0.6
		c0.3,0.4,0.5,0.9,0.5,1.6v4.4c0,0.7-0.2,1.2-0.5,1.6c-0.3,0.4-0.8,0.6-1.5,0.6S110.2,163.5,109.8,163.2z M112,161.7v-4.6
		c0-0.6-0.2-0.8-0.7-0.8s-0.7,0.3-0.7,0.8v4.6c0,0.6,0.2,0.8,0.7,0.8S112,162.2,112,161.7z"/>
	<path class="st2" d="M114.2,155.2h2c0.7,0,1.2,0.2,1.5,0.5c0.3,0.3,0.5,0.8,0.5,1.5v0.5c0,0.9-0.3,1.4-0.9,1.7v0
		c0.3,0.1,0.5,0.3,0.7,0.6c0.1,0.3,0.2,0.7,0.2,1.2v1.5c0,0.2,0,0.4,0,0.6c0,0.1,0.1,0.3,0.1,0.4H117c0-0.1-0.1-0.3-0.1-0.4
		c0-0.1,0-0.3,0-0.6V161c0-0.4-0.1-0.7-0.2-0.8c-0.1-0.2-0.3-0.2-0.6-0.2h-0.5v3.6h-1.3V155.2z M116,158.8c0.3,0,0.5-0.1,0.6-0.2
		c0.1-0.1,0.2-0.4,0.2-0.7v-0.6c0-0.3-0.1-0.5-0.2-0.7s-0.3-0.2-0.5-0.2h-0.6v2.4H116z"/>
	<path class="st2" d="M121,155.2h1.9c0.7,0,1.1,0.2,1.5,0.5c0.3,0.4,0.5,0.9,0.5,1.5v0.8c0,0.7-0.2,1.2-0.5,1.5
		c-0.3,0.4-0.8,0.5-1.5,0.5h-0.6v3.4H121V155.2z M122.9,159c0.2,0,0.4-0.1,0.5-0.2s0.2-0.3,0.2-0.6v-1c0-0.3-0.1-0.5-0.2-0.6
		c-0.1-0.1-0.3-0.2-0.5-0.2h-0.6v2.6H122.9z"/>
	<path class="st2" d="M125.6,155.2h2c0.7,0,1.2,0.2,1.5,0.5c0.3,0.3,0.5,0.8,0.5,1.5v0.5c0,0.9-0.3,1.4-0.9,1.7v0
		c0.3,0.1,0.5,0.3,0.7,0.6c0.1,0.3,0.2,0.7,0.2,1.2v1.5c0,0.2,0,0.4,0,0.6c0,0.1,0.1,0.3,0.1,0.4h-1.3c0-0.1-0.1-0.3-0.1-0.4
		c0-0.1,0-0.3,0-0.6V161c0-0.4-0.1-0.7-0.2-0.8c-0.1-0.2-0.3-0.2-0.6-0.2h-0.5v3.6h-1.3V155.2z M127.4,158.8c0.3,0,0.5-0.1,0.6-0.2
		c0.1-0.1,0.2-0.4,0.2-0.7v-0.6c0-0.3-0.1-0.5-0.2-0.7s-0.3-0.2-0.5-0.2h-0.6v2.4H127.4z"/>
	<path class="st2" d="M130.9,163.2c-0.3-0.4-0.5-0.9-0.5-1.6v-4.4c0-0.7,0.2-1.2,0.5-1.6c0.3-0.4,0.8-0.6,1.5-0.6s1.1,0.2,1.5,0.6
		c0.3,0.4,0.5,0.9,0.5,1.6v4.4c0,0.7-0.2,1.2-0.5,1.6c-0.3,0.4-0.8,0.6-1.5,0.6S131.2,163.5,130.9,163.2z M133,161.7v-4.6
		c0-0.6-0.2-0.8-0.7-0.8s-0.7,0.3-0.7,0.8v4.6c0,0.6,0.2,0.8,0.7,0.8S133,162.2,133,161.7z"/>
	<path class="st2" d="M134.9,155.2h1.3l0.9,6.5h0l0.9-6.5h1.2l-1.3,8.4h-1.8L134.9,155.2z"/>
	<path class="st2" d="M139.8,155.2h1.3v8.4h-1.3V155.2z"/>
	<path class="st2" d="M142.1,155.2h2c0.7,0,1.1,0.2,1.5,0.5c0.3,0.4,0.5,0.9,0.5,1.5v4.2c0,0.7-0.2,1.2-0.5,1.5
		c-0.3,0.4-0.8,0.5-1.5,0.5h-2V155.2z M144.1,162.4c0.2,0,0.4-0.1,0.5-0.2c0.1-0.1,0.2-0.3,0.2-0.6v-4.4c0-0.3-0.1-0.5-0.2-0.6
		c-0.1-0.1-0.3-0.2-0.5-0.2h-0.7v6H144.1z"/>
	<path class="st2" d="M147,155.2h3.6v1.2h-2.3v2.2h1.8v1.2h-1.8v2.6h2.3v1.2H147V155.2z"/>
	<path class="st2" d="M153.7,163.2c-0.3-0.4-0.5-0.9-0.5-1.6v-6.4h1.3v6.5c0,0.3,0.1,0.5,0.2,0.6c0.1,0.1,0.3,0.2,0.5,0.2
		s0.4-0.1,0.5-0.2c0.1-0.1,0.2-0.3,0.2-0.6v-6.5h1.3v6.4c0,0.7-0.2,1.2-0.5,1.6s-0.8,0.5-1.5,0.5
		C154.5,163.7,154.1,163.5,153.7,163.2z"/>
	<path class="st2" d="M158.4,163.2c-0.3-0.4-0.5-0.9-0.5-1.6v-0.5h1.2v0.6c0,0.5,0.2,0.8,0.7,0.8c0.2,0,0.4-0.1,0.5-0.2
		s0.2-0.3,0.2-0.6c0-0.4-0.1-0.7-0.2-0.9c-0.2-0.3-0.5-0.6-0.9-1c-0.5-0.5-0.9-0.9-1.1-1.3c-0.2-0.4-0.3-0.8-0.3-1.3
		c0-0.7,0.2-1.2,0.5-1.5c0.3-0.4,0.8-0.5,1.5-0.5c0.6,0,1.1,0.2,1.4,0.5c0.3,0.4,0.5,0.9,0.5,1.6v0.3h-1.2v-0.4
		c0-0.3-0.1-0.5-0.2-0.6c-0.1-0.1-0.3-0.2-0.5-0.2c-0.4,0-0.7,0.3-0.7,0.8c0,0.3,0.1,0.6,0.2,0.9s0.5,0.6,0.9,1
		c0.6,0.5,0.9,0.9,1.1,1.3c0.2,0.4,0.3,0.9,0.3,1.4c0,0.7-0.2,1.2-0.5,1.6s-0.8,0.6-1.5,0.6C159.2,163.7,158.7,163.5,158.4,163.2z"
		/>
	<path class="st2" d="M164.2,155.2h1.3l0.6,6.5h0l0.6-6.5h1.4l0.6,6.5h0l0.6-6.5h1.1l-0.9,8.4H168l-0.6-5.7h0l-0.6,5.7H165
		L164.2,155.2z"/>
	<path class="st2" d="M171.2,155.2h1.3v8.4h-1.3V155.2z"/>
	<path class="st2" d="M174.5,156.4h-1.4v-1.2h4.1v1.2h-1.4v7.2h-1.3V156.4z"/>
	<path class="st2" d="M177.8,155.2h1.3v3.4h1.4v-3.4h1.3v8.4h-1.3v-3.8h-1.4v3.8h-1.3V155.2z"/>
</g>
<g class="st3">
	<path class="st2" d="M118.7,174.4l-1.6-4.8h1.4l0.9,3.1h0l0.9-3.1h1.3l-1.6,4.8v3.6h-1.3V174.4z"/>
	<path class="st2" d="M122.4,177.6c-0.3-0.4-0.5-0.9-0.5-1.6v-4.4c0-0.7,0.2-1.2,0.5-1.6c0.3-0.4,0.8-0.6,1.5-0.6s1.1,0.2,1.5,0.6
		c0.3,0.4,0.5,0.9,0.5,1.6v4.4c0,0.7-0.2,1.2-0.5,1.6c-0.3,0.4-0.8,0.6-1.5,0.6S122.7,177.9,122.4,177.6z M124.5,176.1v-4.6
		c0-0.6-0.2-0.8-0.7-0.8s-0.7,0.3-0.7,0.8v4.6c0,0.6,0.2,0.8,0.7,0.8S124.5,176.6,124.5,176.1z"/>
	<path class="st2" d="M127.2,177.6c-0.3-0.4-0.5-0.9-0.5-1.6v-6.4h1.3v6.5c0,0.3,0.1,0.5,0.2,0.6c0.1,0.1,0.3,0.2,0.5,0.2
		s0.4-0.1,0.5-0.2c0.1-0.1,0.2-0.3,0.2-0.6v-6.5h1.3v6.4c0,0.7-0.2,1.2-0.5,1.6s-0.8,0.5-1.5,0.5C128,178.1,127.5,177.9,127.2,177.6
		z"/>
	<path class="st2" d="M131.6,169.6h2c0.7,0,1.2,0.2,1.5,0.5c0.3,0.3,0.5,0.8,0.5,1.5v0.5c0,0.9-0.3,1.4-0.9,1.7v0
		c0.3,0.1,0.5,0.3,0.7,0.6c0.1,0.3,0.2,0.7,0.2,1.2v1.5c0,0.2,0,0.4,0,0.6c0,0.1,0.1,0.3,0.1,0.4h-1.3c0-0.1-0.1-0.3-0.1-0.4
		c0-0.1,0-0.3,0-0.6v-1.5c0-0.4-0.1-0.7-0.2-0.8c-0.1-0.2-0.3-0.2-0.6-0.2h-0.5v3.6h-1.3V169.6z M133.4,173.2c0.3,0,0.5-0.1,0.6-0.2
		c0.1-0.1,0.2-0.4,0.2-0.7v-0.6c0-0.3-0.1-0.5-0.2-0.7s-0.3-0.2-0.5-0.2h-0.6v2.4H133.4z"/>
	<path class="st2" d="M138.3,169.6h3.5v1.2h-2.2v2.3h1.7v1.2h-1.7v3.7h-1.3V169.6z"/>
	<path class="st2" d="M142.5,169.6h3.6v1.2h-2.3v2.2h1.8v1.2h-1.8v2.6h2.3v1.2h-3.6V169.6z"/>
	<path class="st2" d="M146.8,169.6h3.6v1.2h-2.3v2.2h1.8v1.2h-1.8v2.6h2.3v1.2h-3.6V169.6z"/>
	<path class="st2" d="M151.2,169.6h2c0.7,0,1.1,0.2,1.5,0.5c0.3,0.4,0.5,0.9,0.5,1.5v4.2c0,0.7-0.2,1.2-0.5,1.5
		c-0.3,0.4-0.8,0.5-1.5,0.5h-2V169.6z M153.2,176.8c0.2,0,0.4-0.1,0.5-0.2s0.2-0.3,0.2-0.6v-4.4c0-0.3-0.1-0.5-0.2-0.6
		s-0.3-0.2-0.5-0.2h-0.7v6H153.2z"/>
	<path class="st2" d="M156,169.6h2c0.7,0,1.2,0.2,1.5,0.5c0.3,0.3,0.5,0.8,0.5,1.5v0.3c0,0.4-0.1,0.8-0.2,1.1
		c-0.1,0.3-0.4,0.5-0.6,0.6v0c0.7,0.2,1,0.8,1,1.8v0.7c0,0.6-0.2,1.1-0.5,1.5s-0.8,0.5-1.5,0.5H156V169.6z M157.9,173
		c0.3,0,0.5-0.1,0.6-0.2c0.1-0.1,0.2-0.4,0.2-0.7v-0.5c0-0.3-0.1-0.5-0.2-0.7c-0.1-0.1-0.3-0.2-0.5-0.2h-0.6v2.2H157.9z
		 M158.1,176.8c0.2,0,0.4-0.1,0.5-0.2c0.1-0.1,0.2-0.3,0.2-0.6v-0.7c0-0.4-0.1-0.7-0.2-0.8c-0.1-0.1-0.3-0.2-0.7-0.2h-0.6v2.6H158.1
		z"/>
	<path class="st2" d="M161.9,169.6h1.8l1.4,8.4h-1.3l-0.2-1.7v0H162l-0.2,1.6h-1.2L161.9,169.6z M163.4,175.2l-0.6-4.2h0l-0.6,4.2
		H163.4z"/>
	<path class="st2" d="M166.1,177.6c-0.3-0.4-0.5-0.9-0.5-1.5v-4.5c0-0.7,0.2-1.2,0.5-1.5c0.3-0.4,0.8-0.5,1.4-0.5s1.1,0.2,1.4,0.5
		c0.3,0.4,0.5,0.9,0.5,1.5v0.9h-1.2v-1c0-0.5-0.2-0.8-0.7-0.8c-0.4,0-0.7,0.3-0.7,0.8v4.7c0,0.5,0.2,0.8,0.7,0.8
		c0.4,0,0.7-0.3,0.7-0.8v-1.3h1.2v1.2c0,0.7-0.2,1.2-0.5,1.5s-0.8,0.5-1.4,0.5S166.4,177.9,166.1,177.6z"/>
	<path class="st2" d="M170.3,169.6h1.3v3.5l1.7-3.5h1.3l-1.6,3.1l1.6,5.3h-1.4l-1.1-3.7l-0.5,1.1v2.7h-1.3V169.6z"/>
</g>
</svg>
